<svg width="546" height="223" viewBox="0 0 546 223" fill="none" xmlns="http://www.w3.org/2000/svg">
<path d="M66.7812 216.125C58.5312 217.25 51.0312 216.875 44.2812 215C37.5312 213.125 31.4375 210.219 26 206.281C20.75 202.344 16.1562 197.656 12.2188 192.219C8.46875 186.781 5.375 180.969 2.9375 174.781C1.25 162.031 1.71875 150.5 4.34375 140.188C6.96875 129.688 10.8125 120.031 15.875 111.219C20.9375 102.406 26.6562 94.1562 33.0312 86.4688C39.5938 78.7812 45.875 71.375 51.875 64.25C53.1875 64.8125 54.2188 64.8125 54.9688 64.25C55.9062 63.6875 56.6562 62.9375 57.2188 62C57.9688 61.0625 58.7188 60.125 59.4688 59.1875C60.4062 58.25 61.4375 57.5938 62.5625 57.2188C63.3125 55.5312 64.25 54.125 65.375 53C66.6875 51.875 68 50.8438 69.3125 49.9062C70.8125 48.7812 72.125 47.6562 73.25 46.5312C74.5625 45.4062 75.6875 44 76.625 42.3125C78.5 41.9375 80.0938 41.2812 81.4062 40.3438C82.9062 39.4062 84.2188 38.375 85.3438 37.25C86.6562 36.125 87.9688 35.0938 89.2812 34.1562C90.5938 33.2188 92.1875 32.4688 94.0625 31.9062V28.25C98.1875 26.375 101.188 24.3125 103.062 22.0625C104.938 19.8125 107.188 16.9062 109.812 13.3438C111.875 13.1563 113.469 13.0625 114.594 13.0625C115.906 13.0625 117.875 12.875 120.5 12.5C122.188 9.3125 123.781 6.96875 125.281 5.46875C126.781 3.96875 128.938 2.28125 131.75 0.40625C134.562 1.90625 137.562 2.84375 140.75 3.21875C143.938 3.40625 146.844 4.8125 149.469 7.4375C149.656 9.6875 150.312 11.4688 151.438 12.7812C152.562 13.9062 153.781 15.0312 155.094 16.1562C156.406 17.0938 157.719 18.125 159.031 19.25C160.344 20.375 161.188 21.9688 161.562 24.0312C162.5 24.0312 163.062 23.8438 163.25 23.4688C163.625 23.0938 164.281 23 165.219 23.1875C165.594 24.6875 165.969 25.9062 166.344 26.8438C166.719 27.7812 167.094 28.625 167.469 29.375C168.031 30.125 168.5 30.9688 168.875 31.9062C169.438 32.8438 169.906 33.9688 170.281 35.2812C169.344 37.5312 168.5 39.9688 167.75 42.5938C167 45.0312 165.5 46.7188 163.25 47.6562C163.25 49.1562 163.812 50 164.938 50.1875C166.062 50.1875 166.719 50.8438 166.906 52.1562C167.094 53.8438 166.812 55.25 166.062 56.375C171.312 65.1875 176.094 74.4688 180.406 84.2188C184.719 93.7812 189.594 102.969 195.031 111.781C194.656 114.406 194.75 117.031 195.312 119.656C196.062 122.094 196.906 124.531 197.844 126.969C198.969 129.406 200 131.844 200.938 134.281C201.875 136.719 202.531 139.156 202.906 141.594C203.281 144.781 203.281 148.25 202.906 152C202.531 155.562 201.781 159.031 200.656 162.406C199.531 165.781 198.031 168.969 196.156 171.969C194.281 174.781 192.125 176.938 189.688 178.438C186.688 182.188 182.938 185.281 178.438 187.719C173.938 189.969 169.812 192.688 166.062 195.875C163.438 197.375 160.625 198.5 157.625 199.25C154.625 199.812 151.531 200.469 148.344 201.219C145.906 202.719 143 204.219 139.625 205.719C136.25 207.031 132.781 208.25 129.219 209.375C125.656 210.5 122.094 211.438 118.531 212.188C114.969 212.75 111.781 212.844 108.969 212.469C102.219 214.906 95.6562 216.594 89.2812 217.531C82.9062 218.469 75.4062 218 66.7812 216.125ZM70.4375 113.75C68.5625 118.062 66.3125 122 63.6875 125.562C61.25 128.938 58.8125 132.406 56.375 135.969C53.9375 139.531 51.7812 143.375 49.9062 147.5C48.2188 151.438 47.2812 156.125 47.0938 161.562C50.8438 164.75 55.25 166.719 60.3125 167.469C65.5625 168.031 70.9062 168.125 76.3438 167.75C81.7812 167.188 87.2188 166.438 92.6562 165.5C98.0938 164.562 102.969 164.094 107.281 164.094C107.281 162.406 108.031 161.562 109.531 161.562C117.406 160.812 124.719 158.656 131.469 155.094C138.219 151.344 145.25 147.594 152.562 143.844C153.5 141.594 154.719 139.625 156.219 137.938C157.719 136.25 158.562 133.812 158.75 130.625C157.812 128.938 157.156 127.531 156.781 126.406C156.594 125.281 156.5 123.594 156.5 121.344C151.625 114.594 147.406 107.281 143.844 99.4062C140.281 91.3438 136.156 83.75 131.469 76.625C131.094 77.5625 130.344 78.5 129.219 79.4375C128.094 80.375 126.875 80.1875 125.562 78.875C125 80.75 124.156 82.0625 123.031 82.8125C121.906 83.375 120.594 83.6562 119.094 83.6562C117.781 83.6562 116.375 83.375 114.875 82.8125C113.562 82.25 112.344 81.5 111.219 80.5625C104.656 85.8125 98.0938 90.875 91.5312 95.75C85.1562 100.625 79.3438 106.344 74.0938 112.906C73.1562 113.469 72.5938 113.656 72.4062 113.469C72.2188 113.281 71.5625 113.375 70.4375 113.75ZM254.375 181.531C254.75 183.031 255.031 184.438 255.219 185.75C255.406 187.062 255.688 188.469 256.062 189.969C255.312 191.844 254.656 193.719 254.094 195.594C253.531 197.281 252.969 198.969 252.406 200.656C251.844 201.969 251.469 202.812 251.281 203.188C251.094 203.562 251 203.844 251 204.031C251 204.219 251 204.5 251 204.875C251.188 205.062 251.281 205.812 251.281 207.125L250.156 210.5C249.219 211.812 248.094 212.844 246.781 213.594C245.469 214.344 244.156 215 242.844 215.562C242.469 215.938 241.906 216.219 241.156 216.406C240.406 216.781 239.844 217.156 239.469 217.531L238.625 220.906L234.969 221.469C231.781 222.219 229.062 222.594 226.812 222.594H223.438C221.188 220.531 219.406 218.938 218.094 217.812C216.781 216.688 215.375 215.656 213.875 214.719C212 212.094 210.969 210.219 210.781 209.094C210.594 207.781 210.312 206.562 209.938 205.438C209.562 203 209.094 201.406 208.531 200.656L204.594 196.719L207.969 194.188L204.875 188.844C207.125 187.156 208.812 185.938 209.938 185.188C211.062 184.438 212 183.688 212.75 182.938C213.5 182 214.344 180.875 215.281 179.562C216.219 178.25 217.719 176.094 219.781 173.094L222.312 169.438L225.969 171.406C226.719 171.969 228.312 172.531 230.75 173.094C233.375 173.469 235.625 173.844 237.5 174.219C240.688 175.156 243.688 175.906 246.5 176.469C249.312 176.844 251.562 177.781 253.25 179.281L254.375 181.531ZM284.75 163.531C284.938 162.781 285.031 162.219 285.031 161.844C285.219 161.469 284.938 161 284.188 160.438C283.812 159.125 284.094 158.281 285.031 157.906C285.969 157.531 286.906 157.156 287.844 156.781C288.781 145.531 290.656 135.312 293.469 126.125C296.469 116.75 299.656 107.656 303.031 98.8438C306.594 90.0312 310.062 81.2188 313.438 72.4062C317 63.4062 319.906 53.6562 322.156 43.1562C324.594 40.7188 326.562 37.8125 328.062 34.4375C329.75 31.0625 331.344 27.6875 332.844 24.3125C334.531 20.75 336.406 17.375 338.469 14.1875C340.719 11 343.719 8.375 347.469 6.3125C349.156 6.5 350.656 6.875 351.969 7.4375C353.469 7.8125 354.875 8.28125 356.188 8.84375C357.5 9.40625 358.906 9.875 360.406 10.25C361.906 10.625 363.5 10.8125 365.188 10.8125C365.938 11.75 366.594 12.875 367.156 14.1875C367.719 15.3125 368.469 16.3437 369.406 17.2812L374.469 16.4375C376.906 18.5 379.062 21.125 380.938 24.3125C382.812 27.3125 384.125 30.5 384.875 33.875C385.625 37.0625 385.531 40.25 384.594 43.4375C383.656 46.4375 381.5 48.7812 378.125 50.4688C378.312 51.5938 378.312 52.4375 378.125 53C377.938 53.5625 377.656 54.125 377.281 54.6875C377.094 55.0625 377 55.5312 377 56.0938C377 56.4688 377.375 57.0312 378.125 57.7812C376.062 59.4688 374.188 61.625 372.5 64.25C370.812 66.6875 369.406 69.3125 368.281 72.125C367.156 74.9375 366.219 77.75 365.469 80.5625C364.906 83.375 364.531 86 364.344 88.4375C369.781 82.8125 376.156 77.5625 383.469 72.6875C390.781 67.8125 397.156 63.2188 402.594 58.9062C406.906 55.9062 410.656 53.0938 413.844 50.4688C417.219 47.6562 420.594 45.125 423.969 42.875C427.344 40.4375 430.812 38.1875 434.375 36.125C438.125 33.875 441.875 31.4375 445.625 28.8125C447.5 28.0625 448.906 27.875 449.844 28.25C450.969 28.625 452 29.0938 452.938 29.6562C453.125 28.3438 452.844 27.5938 452.094 27.4062C451.344 27.0312 451.062 26.0938 451.25 24.5938C454.438 23.6562 457.25 22.5312 459.688 21.2188C462.312 19.9062 465.031 18.6875 467.844 17.5625C469.719 19.625 471.594 21.875 473.469 24.3125C475.344 26.5625 477.875 27.7812 481.062 27.9688C482.188 30.4062 483.5 32.2812 485 33.5938C486.688 34.7188 488.281 35.8438 489.781 36.9688C491.469 38.0938 492.875 39.5 494 41.1875C495.125 42.6875 495.781 45.125 495.969 48.5C495.219 50 494.281 51.6875 493.156 53.5625C492.219 55.25 491.375 57.4062 490.625 60.0312C486.125 64.1562 481.531 67.8125 476.844 71C472.344 74 467.656 76.9062 462.781 79.7188C458.094 82.5312 453.219 85.4375 448.156 88.4375C443.281 91.4375 438.312 94.9062 433.25 98.8438C432.125 100.531 430.719 102.031 429.031 103.344C427.344 104.656 425.562 105.969 423.688 107.281C422 108.406 420.312 109.625 418.625 110.938C417.125 112.25 415.906 113.844 414.969 115.719C414.219 115.719 413.562 115.812 413 116C412.438 116 411.781 116.094 411.031 116.281C410.281 117.781 409.156 119 407.656 119.938C406.344 120.875 405.406 122.094 404.844 123.594C408.219 130.906 412.625 136.438 418.062 140.188C423.5 143.938 429.594 146.656 436.344 148.344C443.094 150.031 450.406 150.969 458.281 151.156C466.156 151.344 474.312 151.438 482.75 151.438C483.688 151.25 484.062 150.781 483.875 150.031C483.875 149.094 484.438 148.719 485.562 148.906C488.375 149.844 490.719 150.969 492.594 152.281C494.469 153.594 496.25 155 497.938 156.5C499.625 158 501.219 159.594 502.719 161.281C504.406 162.781 506.281 164.375 508.344 166.062C507.969 174.875 505.344 182.094 500.469 187.719C495.781 193.156 489.5 197.562 481.625 200.938C470.75 201.312 461.281 201.031 453.219 200.094C445.156 199.156 437.188 197.094 429.312 193.906C428.75 193.719 428.188 193.156 427.625 192.219C427.25 191.281 426.875 190.625 426.5 190.25C425 189.312 423.312 188.938 421.438 189.125C419.562 189.312 417.969 189.125 416.656 188.562C414.969 187.812 412.156 186.125 408.219 183.5C404.469 180.875 401 178.438 397.812 176.188C393.875 173 390.031 169.906 386.281 166.906C382.719 163.719 379.531 160.25 376.719 156.5C376.156 155.562 375.312 155.094 374.188 155.094C373.25 155.094 372.312 154.812 371.375 154.25C364.812 158.375 359.281 163.531 354.781 169.719C350.469 175.719 346.25 181.906 342.125 188.281C338 194.469 333.594 200.375 328.906 206C324.406 211.438 318.688 215.656 311.75 218.656C309.688 218.656 307.906 218.281 306.406 217.531C304.906 216.969 303.5 216.125 302.188 215C300.875 214.062 299.562 213.125 298.25 212.188C296.938 211.25 295.438 210.594 293.75 210.219C293.75 207.594 293.188 205.156 292.062 202.906C291.125 200.469 290.094 198.312 288.969 196.438C288.031 194.375 287.281 192.406 286.719 190.531C286.344 188.656 286.906 186.781 288.406 184.906C286.344 183.219 284.375 181.812 282.5 180.688C283.812 179.375 284.375 178.156 284.188 177.031C284.188 175.906 283.906 174.781 283.344 173.656C282.781 172.531 282.312 171.406 281.938 170.281C281.75 168.969 282.125 167.562 283.062 166.062C283.812 165.875 284.094 165.5 283.906 164.938C283.906 164.375 284.188 163.906 284.75 163.531ZM543.781 181.531C544.156 183.031 544.438 184.438 544.625 185.75C544.812 187.062 545.094 188.469 545.469 189.969C544.719 191.844 544.062 193.719 543.5 195.594C542.938 197.281 542.375 198.969 541.812 200.656C541.25 201.969 540.875 202.812 540.688 203.188C540.5 203.562 540.406 203.844 540.406 204.031C540.406 204.219 540.406 204.5 540.406 204.875C540.594 205.062 540.688 205.812 540.688 207.125L539.562 210.5C538.625 211.812 537.5 212.844 536.188 213.594C534.875 214.344 533.562 215 532.25 215.562C531.875 215.938 531.312 216.219 530.562 216.406C529.812 216.781 529.25 217.156 528.875 217.531L528.031 220.906L524.375 221.469C521.188 222.219 518.469 222.594 516.219 222.594H512.844C510.594 220.531 508.812 218.938 507.5 217.812C506.188 216.688 504.781 215.656 503.281 214.719C501.406 212.094 500.375 210.219 500.188 209.094C500 207.781 499.719 206.562 499.344 205.438C498.969 203 498.5 201.406 497.938 200.656L494 196.719L497.375 194.188L494.281 188.844C496.531 187.156 498.219 185.938 499.344 185.188C500.469 184.438 501.406 183.688 502.156 182.938C502.906 182 503.75 180.875 504.688 179.562C505.625 178.25 507.125 176.094 509.188 173.094L511.719 169.438L515.375 171.406C516.125 171.969 517.719 172.531 520.156 173.094C522.781 173.469 525.031 173.844 526.906 174.219C530.094 175.156 533.094 175.906 535.906 176.469C538.719 176.844 540.969 177.781 542.656 179.281L543.781 181.531Z" fill="#CD5FF8"/>
</svg>
